<mxfile host="Electron" modified="2024-05-31T18:29:55.352Z" agent="Mozilla/5.0 (Windows NT 10.0; Win64; x64) AppleWebKit/537.36 (KHTML, like Gecko) draw.io/24.4.0 Chrome/120.0.6099.109 Electron/28.1.0 Safari/537.36" etag="Ibf9WGInbC2QUoCeCA25" version="24.4.0" type="device">
  <diagram name="Page-1" id="UBK2m8xzDaJkzZHVbh7K">
    <mxGraphModel dx="805" dy="529" grid="0" gridSize="10" guides="1" tooltips="1" connect="1" arrows="1" fold="1" page="1" pageScale="1" pageWidth="850" pageHeight="1100" background="#ffffff" math="0" shadow="0">
      <root>
        <mxCell id="0" />
        <mxCell id="1" parent="0" />
        <mxCell id="J0l9M5PMSN77PLH0h2BJ-54" value="" style="rounded=1;whiteSpace=wrap;html=1;fillColor=none;strokeColor=#000000;" vertex="1" parent="1">
          <mxGeometry x="59" y="37" width="715" height="472" as="geometry" />
        </mxCell>
        <mxCell id="J0l9M5PMSN77PLH0h2BJ-10" value="Region" style="sketch=0;outlineConnect=0;gradientColor=none;html=1;whiteSpace=wrap;fontSize=12;fontStyle=0;shape=mxgraph.aws4.group;grIcon=mxgraph.aws4.group_region;strokeColor=#000000;fillColor=none;verticalAlign=top;align=left;spacingLeft=30;fontColor=#000000;dashed=1;textShadow=1;" vertex="1" parent="1">
          <mxGeometry x="84" y="209" width="343" height="220" as="geometry" />
        </mxCell>
        <mxCell id="J0l9M5PMSN77PLH0h2BJ-29" value="" style="edgeStyle=orthogonalEdgeStyle;rounded=0;orthogonalLoop=1;jettySize=auto;html=1;fontColor=#000000;textShadow=1;strokeColor=#000000;" edge="1" parent="1" source="J0l9M5PMSN77PLH0h2BJ-7" target="J0l9M5PMSN77PLH0h2BJ-14">
          <mxGeometry relative="1" as="geometry" />
        </mxCell>
        <mxCell id="J0l9M5PMSN77PLH0h2BJ-7" value="" style="sketch=0;points=[[0,0,0],[0.25,0,0],[0.5,0,0],[0.75,0,0],[1,0,0],[0,1,0],[0.25,1,0],[0.5,1,0],[0.75,1,0],[1,1,0],[0,0.25,0],[0,0.5,0],[0,0.75,0],[1,0.25,0],[1,0.5,0],[1,0.75,0]];outlineConnect=0;fontColor=#000000;fillColor=#8C4FFF;strokeColor=#ffffff;dashed=0;verticalLabelPosition=bottom;verticalAlign=top;align=center;html=1;fontSize=12;fontStyle=0;aspect=fixed;shape=mxgraph.aws4.resourceIcon;resIcon=mxgraph.aws4.route_53;" vertex="1" parent="1">
          <mxGeometry x="225.5" y="82" width="78" height="78" as="geometry" />
        </mxCell>
        <mxCell id="J0l9M5PMSN77PLH0h2BJ-8" value="" style="outlineConnect=0;dashed=0;verticalLabelPosition=bottom;verticalAlign=top;align=center;html=1;shape=mxgraph.aws3.cloudfront;fillColor=#F58536;gradientColor=none;fontColor=#000000;" vertex="1" parent="1">
          <mxGeometry x="226" y="219" width="60" height="70" as="geometry" />
        </mxCell>
        <mxCell id="J0l9M5PMSN77PLH0h2BJ-23" value="" style="edgeStyle=orthogonalEdgeStyle;rounded=0;orthogonalLoop=1;jettySize=auto;html=1;fontColor=#000000;textShadow=1;strokeColor=#000000;" edge="1" parent="1" source="J0l9M5PMSN77PLH0h2BJ-9" target="J0l9M5PMSN77PLH0h2BJ-8">
          <mxGeometry relative="1" as="geometry" />
        </mxCell>
        <mxCell id="J0l9M5PMSN77PLH0h2BJ-9" value="" style="sketch=0;points=[[0,0,0],[0.25,0,0],[0.5,0,0],[0.75,0,0],[1,0,0],[0,1,0],[0.25,1,0],[0.5,1,0],[0.75,1,0],[1,1,0],[0,0.25,0],[0,0.5,0],[0,0.75,0],[1,0.25,0],[1,0.5,0],[1,0.75,0]];outlineConnect=0;fontColor=#000000;fillColor=#7AA116;strokeColor=#ffffff;dashed=0;verticalLabelPosition=bottom;verticalAlign=top;align=center;html=1;fontSize=12;fontStyle=0;aspect=fixed;shape=mxgraph.aws4.resourceIcon;resIcon=mxgraph.aws4.s3;" vertex="1" parent="1">
          <mxGeometry x="217" y="329" width="78" height="78" as="geometry" />
        </mxCell>
        <mxCell id="J0l9M5PMSN77PLH0h2BJ-22" value="" style="edgeStyle=orthogonalEdgeStyle;rounded=0;orthogonalLoop=1;jettySize=auto;html=1;fontColor=#000000;textShadow=1;strokeColor=#000000;" edge="1" parent="1" source="J0l9M5PMSN77PLH0h2BJ-14" target="J0l9M5PMSN77PLH0h2BJ-15">
          <mxGeometry relative="1" as="geometry" />
        </mxCell>
        <mxCell id="J0l9M5PMSN77PLH0h2BJ-14" value="" style="fillColor=#28A8E0;verticalLabelPosition=bottom;sketch=0;html=1;strokeColor=#ffffff;verticalAlign=top;align=center;points=[[0.145,0.145,0],[0.5,0,0],[0.855,0.145,0],[1,0.5,0],[0.855,0.855,0],[0.5,1,0],[0.145,0.855,0],[0,0.5,0]];pointerEvents=1;shape=mxgraph.cisco_safe.compositeIcon;bgIcon=ellipse;resIcon=mxgraph.cisco_safe.capability.dns;fontColor=#000000;" vertex="1" parent="1">
          <mxGeometry x="417" y="81" width="80" height="80" as="geometry" />
        </mxCell>
        <mxCell id="J0l9M5PMSN77PLH0h2BJ-15" value="" style="verticalLabelPosition=bottom;aspect=fixed;html=1;shape=mxgraph.salesforce.web;fontColor=#000000;" vertex="1" parent="1">
          <mxGeometry x="597" y="69.15" width="131.27" height="103.7" as="geometry" />
        </mxCell>
        <mxCell id="J0l9M5PMSN77PLH0h2BJ-17" value="&lt;h2&gt;N.Virginia&lt;/h2&gt;" style="text;strokeColor=none;align=center;fillColor=none;html=1;verticalAlign=middle;whiteSpace=wrap;rounded=0;fontColor=#000000;" vertex="1" parent="1">
          <mxGeometry x="107" y="239" width="50" height="20" as="geometry" />
        </mxCell>
        <mxCell id="J0l9M5PMSN77PLH0h2BJ-28" value="" style="edgeStyle=orthogonalEdgeStyle;rounded=0;orthogonalLoop=1;jettySize=auto;html=1;fontColor=#000000;textShadow=1;strokeColor=#000000;" edge="1" parent="1" source="J0l9M5PMSN77PLH0h2BJ-18" target="J0l9M5PMSN77PLH0h2BJ-8">
          <mxGeometry relative="1" as="geometry" />
        </mxCell>
        <mxCell id="J0l9M5PMSN77PLH0h2BJ-18" value="" style="outlineConnect=0;dashed=0;verticalLabelPosition=bottom;verticalAlign=top;align=center;html=1;shape=mxgraph.aws3.certificate_manager_2;fillColor=#759C3E;gradientColor=none;fontColor=#000000;" vertex="1" parent="1">
          <mxGeometry x="337" y="222.5" width="73.5" height="63" as="geometry" />
        </mxCell>
        <mxCell id="J0l9M5PMSN77PLH0h2BJ-24" value="&lt;h2&gt;&lt;font style=&quot;font-size: 15px;&quot;&gt;App&lt;/font&gt;&lt;/h2&gt;" style="text;strokeColor=none;align=center;fillColor=none;html=1;verticalAlign=middle;whiteSpace=wrap;rounded=0;fontColor=#000000;fontFamily=Verdana;" vertex="1" parent="1">
          <mxGeometry x="225.5" y="399" width="60" height="30" as="geometry" />
        </mxCell>
        <mxCell id="J0l9M5PMSN77PLH0h2BJ-27" value="" style="edgeStyle=orthogonalEdgeStyle;rounded=0;orthogonalLoop=1;jettySize=auto;html=1;exitX=0.5;exitY=0;exitDx=0;exitDy=0;exitPerimeter=0;fontColor=#000000;textShadow=1;strokeColor=#000000;" edge="1" parent="1" source="J0l9M5PMSN77PLH0h2BJ-8">
          <mxGeometry relative="1" as="geometry">
            <mxPoint x="255.5" y="201" as="sourcePoint" />
            <mxPoint x="255.5" y="161" as="targetPoint" />
          </mxGeometry>
        </mxCell>
        <mxCell id="J0l9M5PMSN77PLH0h2BJ-32" value="" style="edgeStyle=none;orthogonalLoop=1;jettySize=auto;html=1;rounded=0;entryX=1;entryY=1;entryDx=0;entryDy=0;entryPerimeter=0;fontColor=#000000;textShadow=1;strokeColor=#000000;" edge="1" parent="1" target="J0l9M5PMSN77PLH0h2BJ-7">
          <mxGeometry width="80" relative="1" as="geometry">
            <mxPoint x="377" y="219" as="sourcePoint" />
            <mxPoint x="367" y="139" as="targetPoint" />
            <Array as="points">
              <mxPoint x="377" y="160" />
            </Array>
          </mxGeometry>
        </mxCell>
        <mxCell id="J0l9M5PMSN77PLH0h2BJ-33" value="&lt;h2 style=&quot;font-size: 10px;&quot;&gt;&lt;font style=&quot;font-size: 10px;&quot;&gt;CNAME&amp;nbsp;&lt;/font&gt;&lt;b style=&quot;font-size: 10px; background-color: initial;&quot;&gt;RECORD&lt;/b&gt;&lt;/h2&gt;" style="text;strokeColor=none;align=center;fillColor=none;html=1;verticalAlign=middle;whiteSpace=wrap;rounded=0;fontColor=#000000;fontFamily=Verdana;fontSize=10;" vertex="1" parent="1">
          <mxGeometry x="267" y="160.85" width="110" height="16.15" as="geometry" />
        </mxCell>
        <mxCell id="J0l9M5PMSN77PLH0h2BJ-35" value="" style="edgeStyle=none;orthogonalLoop=1;jettySize=auto;html=1;rounded=0;startArrow=classic;startFill=1;fontColor=#000000;textShadow=1;strokeColor=#000000;" edge="1" parent="1" target="J0l9M5PMSN77PLH0h2BJ-18">
          <mxGeometry width="80" relative="1" as="geometry">
            <mxPoint x="457" y="161" as="sourcePoint" />
            <mxPoint x="457" y="259" as="targetPoint" />
            <Array as="points">
              <mxPoint x="457" y="254" />
            </Array>
          </mxGeometry>
        </mxCell>
        <mxCell id="J0l9M5PMSN77PLH0h2BJ-36" value="&lt;span style=&quot;&quot;&gt;&lt;font face=&quot;Verdana&quot; style=&quot;font-size: 10px;&quot;&gt;DOMAIN-NAME&lt;/font&gt;&lt;/span&gt;" style="text;strokeColor=none;align=center;fillColor=none;html=1;verticalAlign=middle;whiteSpace=wrap;rounded=0;fontColor=#000000;fontStyle=1" vertex="1" parent="1">
          <mxGeometry x="459" y="242.85" width="93" height="16.15" as="geometry" />
        </mxCell>
        <mxCell id="J0l9M5PMSN77PLH0h2BJ-39" value="&lt;h2 style=&quot;font-size: 10px;&quot;&gt;&lt;span style=&quot;font-size: 10px;&quot;&gt;ALIAS&lt;/span&gt;&lt;/h2&gt;" style="text;strokeColor=none;align=center;fillColor=none;html=1;verticalAlign=middle;whiteSpace=wrap;rounded=0;fontColor=#000000;fontFamily=Verdana;fontStyle=1;fontSize=10;" vertex="1" parent="1">
          <mxGeometry x="195" y="182.85" width="70" height="16.15" as="geometry" />
        </mxCell>
        <mxCell id="J0l9M5PMSN77PLH0h2BJ-40" value="&lt;h2&gt;&lt;font style=&quot;font-size: 10px;&quot;&gt;S3-DNS&lt;/font&gt;&lt;/h2&gt;" style="text;strokeColor=none;align=center;fillColor=none;html=1;verticalAlign=middle;whiteSpace=wrap;rounded=0;fontColor=#000000;fontFamily=Verdana;" vertex="1" parent="1">
          <mxGeometry x="190" y="309" width="61" height="16.15" as="geometry" />
        </mxCell>
        <mxCell id="J0l9M5PMSN77PLH0h2BJ-41" value="&lt;h2&gt;&lt;font face=&quot;Verdana&quot; style=&quot;font-size: 9px;&quot;&gt;CERTIFICATE&lt;/font&gt;&lt;/h2&gt;" style="text;strokeColor=none;align=center;fillColor=none;html=1;verticalAlign=middle;whiteSpace=wrap;rounded=0;fontColor=#000000;" vertex="1" parent="1">
          <mxGeometry x="259" y="272.85" width="90" height="16.15" as="geometry" />
        </mxCell>
        <mxCell id="J0l9M5PMSN77PLH0h2BJ-45" value="&lt;b style=&quot;font-size: 10px;&quot;&gt;DNS-PROVIDER&lt;/b&gt;" style="text;strokeColor=none;align=center;fillColor=none;html=1;verticalAlign=middle;whiteSpace=wrap;rounded=0;fontColor=#000000;fontFamily=Verdana;fontSize=10;" vertex="1" parent="1">
          <mxGeometry x="417" y="57.849999999999994" width="90" height="16.15" as="geometry" />
        </mxCell>
        <mxCell id="J0l9M5PMSN77PLH0h2BJ-47" value="&lt;b style=&quot;font-size: 10px;&quot;&gt;DNS&lt;/b&gt;&lt;div style=&quot;font-size: 10px;&quot;&gt;&lt;b style=&quot;font-size: 10px;&quot;&gt;VALIDATE&lt;/b&gt;&lt;/div&gt;" style="text;strokeColor=none;align=center;fillColor=none;html=1;verticalAlign=middle;whiteSpace=wrap;rounded=0;fontColor=#000000;fontFamily=Verdana;fontSize=10;" vertex="1" parent="1">
          <mxGeometry x="387" y="182.85000000000002" width="80" height="16.15" as="geometry" />
        </mxCell>
        <mxCell id="J0l9M5PMSN77PLH0h2BJ-48" value="&lt;b style=&quot;font-size: 10px;&quot;&gt;RECORD&lt;/b&gt;" style="text;strokeColor=none;align=center;fillColor=none;html=1;verticalAlign=middle;whiteSpace=wrap;rounded=0;fontColor=#000000;fontFamily=Verdana;fontSize=10;" vertex="1" parent="1">
          <mxGeometry x="313" y="99.85" width="90" height="16.15" as="geometry" />
        </mxCell>
        <mxCell id="J0l9M5PMSN77PLH0h2BJ-52" value="" style="shape=image;verticalLabelPosition=bottom;labelBackgroundColor=default;verticalAlign=top;aspect=fixed;imageAspect=0;image=data:image/png,iVBORw0KGgoAAAANSUhEUgAAAuQAAAC3CAQAAADwKIOeAAAAIGNIUk0AAHomAACAhAAA+gAAAIDoAAB1MAAA6mAAADqYAAAXcJy6UTwAAAACYktHRAD/h4/MvwAAABBjYU52AAAFIQAAArwAAAERAAABGfh0zBMAAFCaSURBVHja7Z13nFxV2ce/Z8rObN9skk0hDQKht0BC6IIgHemgFAEFBJGiKLyiqKgUQUVBUZpU6SAgvfceWgKk97bJ9jb99/4xZ+/ObnY3W2ZnZjf393yyOefOLeeee+9zn/tUI1y4cOFiaCBOhAWay0I+ZgX57MJu7GTG4c32wAYYxmXkLly4GAoQLczTR7zBezTSQhRDkE04npPNeDzZHt6AwpftAbhw4cJF/xFhKa/pKd6lngjCg584jVTTQKlOM8XZHuCAwmXkLly4GOQQjbyjO/mAFUSAAEWMYUsW8QURlvIWh1CEyfYwBxAuI3fhwsWgRozlPKu7+JQIEGQ0e3IAWzLcvKk/Mpc4i1ig8caf7YEOIFxG7sKFi0GMZmbpQZ5kCVF8VLAnJzDVjCFIgmomMZ8EtVSSyPZABxQuI3fhwsUghajjbd3BG1QDxezAUXzbTMSPIWn8bERA4RBXrLiM3IULF4MUCVbzom5nJs14Gc+BHMs0U+awbLGK5QgPIxnteq24cOHCRa4hziru0YN8TRgfUziTo8x4K4snEWUVtQgP4xlrhrYnucvIXbhwMegQZYEe5h4WESefnfghB5uR7dQnYoFmEgb8jKTUVa24cOHCRS4hznzdwqOsJEEJ+3AO+5rCDqw6xke8QwQvW7M3gWwPeYDhMnIXLlwMKsRYoH/zIGuAcg7kx0w1wQ7rJFjOB1SSoIDpTDN52R70AMNl5C5cuBhEiDFL/+ZhKhGjOYpz2MqsL2+HeUsv0oKHSexKyRBXrLiM3IULF4MIMebqrzxFNTCakzmdLc36TCzBQr3IchIE2Z1vDOlQoCRcRu7ChYtBgjhf6R88SQ0wmu9yrpnYaV7DJl7mdasfP5gxQ14edxm5CxcuBgkSLOY+HqMGGM6xnGMmdeodHuU9PcxqoJj92Xc9/flQxND2knfhwsUQQYKl/FsPUAWUcChnsWmn7CvBYh5jFhF8TOdIyjcCedyVyF24cDEIIFbyb91uTZyHcTFbmM6ZVxWP6XHqMUzicHYa4oFArXAZuQsXLnIcYh2P6V7rcHgU5zKlCzYe5i09ShWilCM5yhRle+gZgqtaceHCRU5D1PKi7mcZIsienNGppwpAlE91C7OIkc9enMCYjYbBuRK5CxcuchrNvKGb+YQoBezOj9mxi/CeBHN1N2/SgpcdOZUdzMbD3jaWF5YLFy4GJWJ8ppv5kDA+tuccZnTBxsVK7uNxmjFUcCj7maEelp8Kl5G7cOEiZxFnEffwEWE8TOSHHGAKO11PVPKA7mQ1MIrj+Y7ZOLxVWuEychcuXOQoxEpu1WPU4GEsJ3JoSrbx9qjlJd1NJaKQA/k+k9g4vFVa4TJyFy5c5CjqeFKPshYxgu/yfTOiCzbexMu6hTnECbInp7LlRuJ02IaNxxrgwoWLQYUWXtM9LAeK2Y+TGNeF3NnAs7qW2UQJshvns8dGpR1PwmXkLly4yEFE+Vg38BkR8tmNH7FtF0bORp7XDXxOjDym8iP260KLPrThMnIXLlzkHMQyHuIzQnjYgu8ztVM2Llp4T3fwKTE8bMap7G8Ksj30rMBl5C5cuMg5VHO3nqIeD6M5sUv23Mg7+jtvEsLPFM7m2I3MV6UNLiN34cJFjqGRV/UQyxAj+TbHm+GdsucW3tSNvEGL9TA/zgzbSNm4y8hduHCRY4jyhW5jMXHy2Y3TOs1yKBp5Xn9hJmH8bMU5HL0Rs/GNipGH+VyjzIRsD8OFCxfdIMFibuM9WvCxHT/oNNBe1PC0/sanxAiwLWdwTBdS+8aCjcKPXDygvVWq6UzUucr2aFy4cNEVRAP/1avUYxjNqexu8tdbJ8E67tXVfEYMH1tzdpfKl40HQ4CRf6Jd9HA37PkF7aLv8BZhAP7Jey4rd+EiR9HCq7qbpcAwDuXQThh0gmXcqj8xhyh+tuM8TjQVGzkbHwKM/GPtz0wu6uLXao7TQXwCQAXTAGzPhQsXuYY483Q/C4njZzqnM3E9BhVjAXfoVpaTwMc2/JjjTelGz8YHPSOfrQOpBUZ3+uvr2lGPAlDBXSw3vwIgnu1Bd4AI00CIRLYH4sJFViGquJfXaMHHJL7DNutpx0PM0p91K8sQ+czglxzbZfaVjQuD2ti5liOoAeDy9X6L8VtdZZnj6fzJlANzAdgsCyNdyUqtoZI1JP+uJUSIsP3XCj8BS0FGMJrRjGI0o5nAVsafhVG7cJFJNPGWnmMdMIJTOdiUtPtVhPhAt/Ms1YgivsmP2W0jDf9ZH4OYkUc4RosA2ItjOryUqzlOrwIwgrs5xP76PpApRl7LXM2llZp6tE2UKI2d/uLX1uzIDuzKni5LByBBhAhhwoSJKEyYOH78+PDjMz785FHMxpdzY/AixhzdzjwSFLInR9I+QZao4mXdzvs0YCjnYH7E1I0wp0pXGMSM/Cy9BUAet3T4ZY4OZz4Ae3O/2cQuDfEsUMzkAfwSa2amPuQDPmBhWvcb5XM+B6BUB3M4h5uygTuJrCJBLVVUqYoqqqgm+X+LZdoO6yba3U4cc7afEoopoZhiShjdRmbkYL71hyBEJY/yEWG8bMPpTDGpWt8Eq7hP9zCPCIYxHMMP2NoVaVIwaO/mq3W3bf2Srdux5pd0PLWA4TJ+l5LO8nk1AgcyEJe/ipf1Eh8wqxsNfIlVlYxiFOXkEyRA0JKfKBGiVsqssVTFcpawst0+63iQBynW+VxsRmZr8tOCepZoMctT2HUVVdSm1VYQpYqqzn6QoYIt2IIpTGELNu/Eyc1FJhHieT3OOgwjOZHp7WTtGPN1O/9hNQl8bMpZnGTGbmT5xjcEMzh98R7TcVbs2o6Z7d7MN+sCYkAh93B0OwZ/vB4BbuP7aZTIY7yn53mBjzplP2PZii3Ziq3Ywowh2OdjLGOePuUTPmVOm7BJAX/mnEFk56lliRazmCUsZjGLrXWj98gjjwB5lrzEiBEl1u7/WC/3aRjPNPZkT3Z25bwsIMps/ZKXCFPEUfzaTE5Rq4SYqdt4iipEkB05h8PN8MHupZF2DEpG/on2ohkAD++wWwozu1R/BGAcT7JzOya3igmKASvM2LSMIcQzepDnqO+w3DCFGcxgF7bsYKxJB1bznJ7lScdAejb/yllWHmGu5rLEsu5F681UZ/AyglGMoIxSypy/ZZRSZooJEOjx91QrY2+mTvXUU0fb33pW8zVrO90un+nsyeHsnrPzOvQglvBn3UcNHnbmtxzgZDoU9byuv/AhzUAB+3Ahe5kC109lPQxCRl7LVGvkhAu5wbmmcc7R7QBM4wkzpsNWV+rXwDQ+6Pc9EOFFPcATNLRbGmQv9mQGu5lhAz4D67hVV9vj386ZOXRXx5mv2cxiNrOYuwG5uJTxjLGqJqtyMiMzKGnV8LW+Zg5fM4f56411C07jFDMp81O4EaKZh3UdXwLDuZQzzHC7PMYKntKdfEEEL6M4gB+xvasE6xSDjpGLb+sp257IbCeJfITvWp/xb3P/ehc7zkStAP7Oef1ie1/oHzzYQSmwKYdwKPtl2BFqAQdqETCZ+Vln5GI+H+gDPuATGz+7PvLYhAlMYALjk38H4Hul72jhPb3Bm7xrv/SSMOzDFeyf9fkd2kgwS5fxCmGKOIJL2d54SDobztb9PMJK4vjZhhM51mw6eI16Aw0NMro6pfOsWpsNHGCb31Osk60eE0JBVff5uGHu194dFk7Xn/SV+rrH/tLfbaMla9cizGv6lb6lsk5/DmhrHamf6p96SUtIdLLKIrI39s4pwnv6Y4frfJxqsz6uoUxruUxjZeTVVL2gCELEWceDOlLlMjIq00F6SFWd3kMuJSnrA+gdvSav0znFYaFVTLfNi9T5xU6y+e/0kemu4XJVtFu0uX6tuVmei98JoWFZeZHEeEJHqHC9H4q1u87WjXpRi4l3u4coZ8loN+XmwzmXyzTG6W6tlVkf0VClFv6rHeWR0ShdpbX23vhaV2gH5cvIpzE6R2+o0WXj3VLWB9AbWsVopzPCXnSxim3tsiu7YGpzMELoxT4wvdX8VAUpC4p0nt7PmhSeSrsIocOzMJYPtFm7BWN0vH6vJ7Swxw9blCOE0EhFsz6PXVGM/2pT2zk0J6740KM4X+kUFQnl6xh9pjgJ6nlF31WFPEIBTdNfNJ/cvUtyhbI+gJ5TjH1TuvfZR2sFWwoho5u6fNguFkITFO/lEVdysfJTFmymP6su6/OQpLtt47GMs5gaWudkgs7QHZrfh3380DZ+muMMsp4ptrki62MZitTAX7SpjHyaogfUSIyl3Ko9VCAjo0Ltp0dURW+f242Rsj6AntPPUzqHWAawlM2FkM9h7OtTHaVC6JpeMY1mrlAwZcF+eqLXL4KBo4/sC2Z6FlQTHwqhPP2vz8f+i234+/QSyCx92zY+yfFXzmCkMG9qf/llNFw/1xJqeVf/p63lF/Jrok7TW1m0AA0uyvoAekpPyDidIi1BiMUkP33z9b9uHrM/2nWqenG0hzUhpbuP3sipx3g544RQnj7OwrhijBVCr/bx2E/JY5s/yalZXZ+qOd82J3RqQnepPxRnMReoTEYBHaSXtYx/6gCNkFdGxZqhv+lrIlkf5WChrA+gZ7SAspTujUoumyiESrpls2HLds7pMdOYrf1SutP1Qo6xm9VWmYT+laWRPSCERmlhH7b9TEW2OVw1WZ/Lrqmaax1vnAK9nWP3wFCgJm7RljLyaJz+ptd0kTaTz/bP1tOqdlUqvaCsD6AnFGJqSnd3xRHzrFRaugHT4222MbtHj2KCPyngdMfrkZx7gBvZXgh59Pcsju1HQujyXo9gFeOdzk05N7dJauERHaU8Z8FkfZqjIx3MFGe2jlRAqEBH6Dc6SuXyyCiorXWdFhJ2vVR6RVkfQE/orJROnmZLzLVydpk+6PYhS1jp9aAePYpLaJPF/fq5GrN+5uvT5UIoX49nlbkkuF67aWYvx9DCNKezdQ76qyzhFh2jkpRFpbpaoayPayhSFVdqExkhnyZrkoIy8mqsjtUTqnWZeK8p6wPYMN3VrvsbiQVWGi/ThxtgJY/bxrM9YDkPqNTp7NNDCT7z9FeV6tv6IkdH1z2lvpCfyaEzWMVjulBbd1g8TbepKetjG5oU5mXt7sSEeGSEgpqm32uWa97sE2V9ABuiL6wXd/JTd1uFWWx148P00QaZwQwhtNUG/SsS/NLp+HVNDvmnDB26J6VzWA6w8Tif6Wad0sEnHqESndPrrw2Xek4JFnOeYytByKdSHa2nXVfDPlOOpy5o4FiagYnswFP4uZtK9tcSYBgvsssGsmC8ofcA+MUGsqU1caoet+0p/GeD+3XRe3ylHzrtPP6SxRmu5329w9u81yHtGcAWHMZh7ONk33MxEIjwul53stoYCtiOwziSLU1fUz27yHFG/n3NBYp4kk94kesZY/bVQmAYLzF1g8zgWgA25TvdrrmWb+lT2z6J25w0XC7ShyaOSyl3dxFbZHwEUWbrYz7kXWZ1kjs+yN4cxqEm8+Pa+BBjvp5mgb0KPkbxLY5jNzPMzTHeH2T7k6A7ukEIefSEhAixhqQes7xHH76f28Yt3a671nqBoKT+3aWBoFNSOqNVn7HjRpipW/VDTUvxRUqlEh2iq/Sma9DMEMWp5jWdqWEyQl6Vay/drAWEsz6ywU45LJG/q58B8AeONAANfFNfAeW81KFoROe4GoBxfK+bdas5QF8AEOROTnRVKgOCW3VvSu9aigf4eBFm6WM+5mM+J9LpGmPZg73Zmx2NKwVmCiLMfD3Ho3xJAyKPLTmQ49jOFLmFIvqNnM1Hvo6dtRw4nCeNAWrYX58Cw3iFnXpw3eeytRLAjZzf5doh9tZHAOTzJAe4d9OA4FPt7lQ0ghm8YwZmokN8oZl8zEy+6IJ9l7Ar05nOdKcgt4tMIUI1r+p+3qeaGBBgKudwsBnh1t5MC3JUIk9wspYDE7jLGKDO6rGLeLZHbBz+oAQwih90s/a5lo0H+a/LxgcI9RxPCPCQAAx/S7P01cBnmslMPuHLLioSBdmBaUxnOlsO0CvERfdI0MDbeonnWEgEAYYyTuTbptSVxdOEHGXkv9MLgJ8HKQcaOFgfAUGeaFehs2ss5D8AXNJNyeN/6k4AvDzGt9z7aYBwpuYDFYi1wOlMS8tMV/OJPmEmM5lL59+UBezEVHZhKtuYHL3JNwokaGCpnuQx5tLkXKsg+7AfJS4bTxty8h5/Q78D4FpmGGjiUL0H+Hiox2W3rlIMGM65Xa4/Rxfa1nUc4t5PA4S/6lHAy0HcA5Rwdb9meh0f6SM+YSaLu1ijmJ0t+97SuJ/s2YaIsJQX9SwfUEXcYduG0RzA5q59Io3IQUZexXeJA9/mYgMtHKG3AA93c0QP2cAS7gbgYrp2JfyJ1aOezMUuGx8gvG/N1f/HHQBcwag+7KWRmfqQD/mARV2sUcZUpjKVXcwWroyXIxAxVvC+/strVBHDQxkl1NKACLAf++AWUU4ncpCRn6EVwCTuNBDi23oVgJs34A2eimsUBUq7MXM+q2cAGMc/3Sd/gFDNCUSBQ/GzEtiSC3ox1xE+04d8yId81YnfN0A5u7ALU9nFbJbtU3XRAXGqeVf/4xVW0wzksxXfoIaXacDDRA5kkmuvSCtyjpH/VU8BeTxEGVGO1YsAXMfZPb7uy638dwGlXa7zB/v/DRRl+4SHKMRpWgpM4Hp2A+AG/D3Ybo7e5QM+7NJxsJipTGNXprnsO0cRp4FP9Rwv8DUhIMB49ucQSvgblUARB7OHGzubZuQYI5+pnwNwHdNMglOs3PwrLunF6/taRYAiLuxym4W8DcBeHOuKBQOEa/U04OchbqQBOIKDu5lr8ZVe5zVeZ02nvwfZkWlMY1e2cjWrOYw4tczTSzzLbJqI46OcPTmGvUwRt+hDInjZnP0Z60Zxphk5xcgbOYkIcDQXGDhHDwFwAVf2gt2u4jYAzmV4l+vcZ43n52X7hIcs3tAvAbieYeZWQR5/7vQaill6ndd5nbWd/Opju6T0zfau50nOQzQyX8/xJPOpIYFhBLtwMAcy2Xj4RK+xmgTFHMxu7tVMO3JqRs/VPGACtxu4REmGfDo39Epqvk4hIJ+fdrNV0nu8kGNceXxAsIaTiAPHcoE5WjHgJ2zebg3xmWXg1ett7WFLdmUa09jJTaI0SCBCzNfLPM2XrCGOl2FszmEcyWamGEMtT/AhcbzsxIHdiFgu+oxs5whoozuFkFdvSVxpFx7Xy1qJq2yF9wu6zZqSzK4y1c2sMiAU55tCaHPV8ZoQGqMG59cIL+hcje1kw2E6XNfo1QxmYnEpHZSgha91u45ShS3VVqBd9H96U1Ukn94Yr+qb8smoXH9UbdZHPBQpZyTyOfoRAL9lT/M3XQHAQdzXS2/gq9QC5PGzbmXtpB52TLZPeYjit3oZCPIwRVwEwLUUAeJF3cXT1HVYfzx7sTd7sZ3rxzDoIEIs4229wuusJoohyGbsx1FMNSU2+F7U8jyfECfAHnxjwDPtbKTI9pskSSF2FEL7K86dMkJobzX3ci/LSOa421Ch5WT5N1ciHwh6Xh4hdKta66XOUIJ1XK/NO6xarhP1by3O+ohd6hslCLOce3W8JitfRkYBbaHv6REtJ5KyXohntKe8Mhqpa1O+zVxKJ2V9AEk6XwiN1EoetQWgdlFdr/dyjhDyb7C6+8FCqNAt5JV2Ws5IIXSqRJzNhLx6Qj9WMGUlj6bpV3qnl0ozl3KJErSwmEd1sraQX0ZG+ZqoE/SIFnQom5xgNT9XmVCejtf7bu2tAaKsD0C0VtY0elrP25Ju22htr/eyCL/QhuVxcb1t3OnK5GmlKHvaq9eIeEQIFaXUo0db6A9alvVxutQfShBhOQ/oTG3jSOKTdILu0hxC65VNjvCkZsgro010i2v/GDDK+gDEUoYJoZ/qbVufc1Ot6MN+zhBCwR4wiiWW5W/pFhRIK10ihAr1pYQ4vt2PXp2ut9wX5yCnBCHm84B+pInKl5FHfo3T8fqXFtFCopP11/JjFQkF9V195crjA0ZZH0CMvYTQLnpfZUJorBb0YT9z8Qmhi3vELM60jUtd1pI2esI27rVzOinlx2/qC3emBzkliLCMR3WGNlWxjIz8Gq9jdZPm0EDn5c1DPKzt5ZXReN3hik0DSFkfwOVCqFhPq0IIjdDsPj3yJwuhQq3p0dprqLDNf7sMJi20yH5XtSq26pxbK18PuHM8yClBEwt4VD/Q1gpadcpYHa87NK9TSbx1q1WcpzyhgE7UV0pkcMQbG2X58C9bH4erNV4IFeujPj30X9r9/KLHW7dq47263WUz/aYwuwqhndVilyyzt5bRM+78DmpK0MQ87tPR2lr58sioQBN1pO7Ql+qaiQsR4kFtJyOj0fpbr33QXOoNZfXglYwRQodqCyHk1wt9fOiT+thSVfdim6ecgrznyi3+2j/6kZ3/+c6SOfbWOt5l44OYEjQzl3t1lDZTnoyM8jRRx+g+zaF7Ji4SrOGnKhTy6xTNcvXjA0pZDAgS39MqYBRzmQ8Y7uDAPsWEfK5HALiEYb3Y6nDzXx1NCLiZT/WIGZu9qRjkeEh/B+AOJjvLWmw+m8OyPTgXfUSCFpboQ17gfZYTAfyMYTcOZ7qZQHCDmd/jvK+3COFlLHuzmZvsbECRRUb+Jz0LQIONtLyGU/oY2ncFAkZwUS+3P9g8pROoAd5lqv7JUW5oYR8wlx8AcHG73DXDDALc0rqDEnHCzNPLvM37VBMC8hjN3hzIvmYUgR6U70hQyct8SZwiDmA/N2vOQCNbnwIfyN9uwY/7/An+kW1c36c9LLeZQRA6NEU14FLPqNlmrpmhSLvlCQqF0M9d1cogozgNfKY/6khVKCAjjwo1Uafq9i5cDLu6Lx7SVPlkNFm3O5YTlwaKsnTYOjZrt+C4fmjQDhFCY/psTEnwJ0dbHtAVrlGmV5T03h+upV1clymur8Igojj1fKo/6nCNlN8mwNpS39cDWtgLJi4SrODnyhfy6wR96urHB5yydNiT23X36YeH6bu28fd+SX6faWens6kecJlPD+lOoa48Ux6xjb4asF3KLMVYx1v6o76l0TaLYVDb6kw9paVEesHEhYjylPaQV0Zj9Vc3v0oGKCsHvadddzvV9GNfBwihSf32O4lzs4Y73R31P5f9bJC+tJG4nTt9Rqyv/v7uTOY8xajkef1K01ThSOI76DQ9rsUdcqf0jKq41Mmv8omiWT+/oU9ZOORCSlK64/uVe+N120hPWE8V51p/dIT20GsuC+qGmtlOCO3bZfqrP9nGk+485iwlCLOW/+knmqISeYS8Gq69db6e1+peS+JJivC0dpdfHm3i+o9niDJ+wBi7p3TLNKtfD/k+QmhKGjPpfaJ9UroH9TFAaWOgs4RQhVZ2uUaI8fb6RDIyIpd6RwkirOC/ukQ7qFgeIY/KtJt+q7dVSV+vWYJKfqlSGQV0nGa6asqMUMYPeEVKJ6DX+8UmX7SNdIeAP6ltnI7RcTYJlEup9ICdnee7nZs7bOM37gzmGCVoYRGP6fvaVgXyyMinkZqhP+hlp7JP3yjC89pHPqERus7Nd5ghyvDh3rLZxhHy6JF+Pt4zhNAOA/DOj3G7xjldr07XoqxfqlyiBVY9dvkGrmDcfn/59bHLynOGEjTzNffoRG1lmbhXI7W3rtNbqiLaJ3VKG9Xxe5ULeXWo3nezzmeIMnqw2nYZ8W7s56Pdmm3viQFiEc1cY/MxIpSn83uYkKu39JWm64Q+5F/PHrVmVtm7B4/pbJvTZjs3DUJOUJwGZukuHaGxKUH3B+uP+lh1/ZLEW/f/pg6VXx6N1DVufc6MUUYP9p2UzmX9ZL9xG4gybUAlvSp+klIYoVhXDYDp5j4hdPYgklgvEkIjtLxHa//GNn40iM5waFKcej7QjTpcmyggZBTQZJ2of2sONWlg4kI0c7VGyCigw/SWaxvJGGXwUHeldE7r90Pd6sI48F7Ki/iOrSKK0DjdlebwhijHCx03aNjcU0LJek49Wz/MVNscuimDv855lhWjlg91rQ7QKCuJBzVBp+jOXob6bOgoH+vbCgqV6nLVpm2/Lm2IMnagBRQ7nf36fdtHbGToPhliDR9pv5TuTnopzcf9bNDUD11G0tu+N6H3CygTQkF9OCRZ+beEtsnhMwuzmvf1S+2rCnllZFSkSTpN92lBGpm4EA38RSNl5NU+esHVj2eQMnSYqDVMIjSlV8lmO6d/2MYbGXx8ntZ2Kd2jeqhYGFoUY28htHsvgzz+a79pxg+QnSGbtAKEds1JRp4gRiUv61xNV7m8MvKqRFvofD2hBZ1U2OwfxZmp78ovVKTLB5XVZ/BThg7zS6dZrrn93luzzWN+cIYfnhi3aazTLdHfu1WyxMmtiLZ0PLSX22u4pNdb/tw29s1InF8mc3s0UKwtNCej16Fnx4mwjBf0M01XqYyQV+Warkv1glb02zelM2rh7xovI6920VOucTujlJGDvOE4HfrTEi15jW1k40O9id+rTUk0o10tyhizda9+qoO1k8bIJ6NNtKd+0Ol3QyM9Y4aPa29d3kEVtY63e+yfW8WDOkPbqUQ+ba9X+zVjL9m4175EakZpDbS6YMCuWpz39Bvto3HyaIQuzFgoSnUPXhxLuEXHaEvlK6h9BzzLZoIwy3lWF2t7lVgHw2LtqZ/rFVUOCBMXCeZytgqFgjpHK1z9eEYpA4dYywSn09+yagkamG+rQ+6g5/WMntLjekwva6YWZezWqeR8JwmvX5erkQ90rQ5WUZebHNeOqVRzurxCh25wNj5RUKg96/yDfEKjehAT+7pOSvG5QWjLfsz/GkYLoZ/0cR8rGWWbdw0AK1/NVZrYYeGzGXjRJ6jbwBpRHtY3U8zlCJ08gCNL0Mwi7tGPtYP1EvdruPbRL/WW0uWb0hnFeEhT5JVHU3SXK49nmAb8ADH2dzpd16wPU8MK5vG53tMr+p8e0h36q36nS3S2TtIh2lPba4LKUjKhdEY7ZrBO91yOdTqeHmzQ5u1exzTbNBuUq1tNrDOdrd9xfjy6W2bwonbpZPH0PjOQBN+ye+i7ofpV+2UW1JtpZWSVXNjhhZWkd/p8lDhf6KEeyM1xDhU6TF3/fqcmdPLDef04/5U82eWXVYIQy7lTJ2myCuSVkV8V2l/X621VDaiqL8EqLrXy+BkZFKpcStKA7ryZj3WY0zU6VCfpDJ2so3WQ9tGu2kaTVKGiHjHCntHMDCpbFnNEJ4tH6XBdobv0jN7Vq3pcVyrpX3OdHVnYmgtRW8X5zinM+ba5c8p6f3WaXTPlj20N1CRN0pHa17Z7wkA/1587YdZXCaGyfka4XmUbpfokTVcqxtUpqq5i7aFTlS+Eju3BERo5U2M6lCRp5HptakfZsoFjn2abnZtwH9YIp+PV1jpJWwuhAlX14Mz+oy20RwcrzDM6yMr2D3c4uwRxGpjDHTpZm8tvQ33G63D9Q5+occCtBhGe0I7yymiCbnATZWWcerVyjCbWsYIFzNbHekev6Bk9pv/oDv1Df9Hv9TOdpeN1oKZpiio6VABKLxkVaLjGaXNtr2naSVvICO2WIYenJu5Z72MZoWP0WSfMYwVG6G37y9l2cZn+1i2jeUiTbdPfTsf+stPsXNcc52RnZJvqWlUiHnAKZ2zoC+A9HSnTyb7flk8IPdZv1VhrUFhFL8yDXdNcxxsqoJP1lhJUMt0uuXIDY63l9yoVSn2hJrg7xZxNt5k5P3Zy2O/QyZGaUypPTdMdakL8yvanbGBkCf5rv6dKU16pX+ibKStdrdT1o6zhE92h47Wpgvb6e3Wk7tCsDDDx5Gz+RkVCPp2gL91CEhmndp0Qy5ip53SP/qzL9H0dod21g6ZogipUMqCMOUl5KtdEbacZOlBH6zT9SJfq97pBt+tBPaM39Ymes9L7Des9Cst5QI0ZmLA39f0UCRAhn2PKDXShlb1Hj9vlH1rvgQu7lcme0W5OZ4cOmdFbrKa6XCvW224+v1driuAd9Yx9nP7kMPbCbhnIKzrAWe/WdmtWWytHOsyUEQ60zQn9SmAsxAvWKlGha1SJEHOZ7Px8azejreT/nJnKc6wN7znznpTpS7vcwxxOc676CL2/3npvOPaSo23+zAjfc37et5uRxbhP2zrdVmXkOn5kj+ezz+FTEjGixAizgpd1pWbY0mzG3mNnpTXUp3uK85YOkl8ejdL1biGJLBDibV2j0zTNSicDQXkapcnaSXvrEJ2gM3WhLtc1+rvu0mN6Qe9qlhZTRU/MIycJoU2zYkpZy9Wa3GHhLrpBq3nd+YQu2oBy5xQhdEWX60S5TzvYzngh73pJYq9y2PI0nacbdZv+oT/rZzrafrYjVOC86OJcIISMhgv5uvDjaOF+tfn5H7yebvgoe67pmfUGm6kFbdUvX+NHrF78XKcwybv2OiT/3tTFLH+m8y2jTs7McxKilh/YmT1Ib+o1IbRXp3v4WqfIK2SUrEra0SephQvsnjZxWHy9fX0VKl9oRhcjq+Jv7e6wE+16d6lcCE3QraojadJdRC3z+FxfpdyLfnnskSfqSTVkUE/dxB81QkZ+fUvv5nyU61Ak51O/Z2SUrzKN1kRtqZ21lw7WsTpN5+pn+o2u0z90lx7Vc3pTMzWHe+1NVdLPnONtNNPu8b6Mux1+rDOs/0grTdQvUtLbfuaw8rGdVK9so+QDubjT3+q4SZNsZ4qeUL7QER2k8aRiYkyKzJZKScY2Vauc9Y8RQgHdr9OF6CQH4Uz9yEkNZnSkPlhvjb/aq5g+l7lKWnX4U7Uhn4+u6AsFhIIp98J/LXs+RG8JoVPXO5MabtauTjd5xZIRqk9pEyE0yaZ8uF4Inb/eHt7WSfabcBtdJoS+0WGdVx37xOGOhn0FOwmhCn2o7YSK1ovjjfOCTnQUYHnKF9pCDYilHCyE/Pq1wog1GJVpKy3rVCtqhIL6hRozamyM85mOUVCoWBf3+Yq61B9ic6ft1RY6UmfoQv1K1+lful9P6w19pC80j2VUUt8jmbmV1tigHa+VeNJBSb+JqRlNVR/hAe3ZblGxvq/X1hvDZ06huP26PN86EPKvt22Up3WSIyVuppsV5t9CtEv0u8J6u2ytxcR5XKdoqsZoorbTN/QD/VE3CqEtHD34l1a2L9NramXHh6RIS7P1J+3k7N6j4/RpJyP/2L4eHkrry3OhVRChffpUYT3OjkLoP2q9SpfZl/xZitJEoVB+isqjhsd0csqreDPdrM2FRinMaltB1qMfO8q504Xau0nWcKMT2bu9HlCM5BfQyynrVPN9p3Ooc5WfV9LtcooWIk4VSvXfivGufpni2ZKvC5T8ivqfYtxk1XjTnHiFl7S5up6YEl2sVRn3GAlxjzaRkVcz9IRb2C0rxJeaJmT0f2lNAd/qrMYGTHq9oVYz34sZk8dX81uNabdoR93cpQbwOUfpcUcXI1wHQr4UiTzC27pQFc4q2+s+a7A9UCgv5VjP25Ec1mVq0KTapjWJ2K22nuYEzVbyXJI61ik6R+fq0HbnNUFXaGGn+6y3svNZaZ/zTx0d9eF9ePQ/Emrzw1+wnoEzyZoLdaR+opO0S0oWfL+O1dOKcYsQ2k5XWla5lWOOFiL56v5cQoR4Tqc7r9mpekwJxH+F0B4p2zxgGXZQyGt19hF+Zu+KPbQOIZ61q0/XBTpT32yn0NxJf1MV60heuT/bF3G+rksx4t/azbTcpKosuP0lWMyP7ffRD7U648d3SVhj5zy+TvOD+nvb+G4a95v8KP5Whtj4ci5I0aSioE7doF/yhbYxsUstYdIVcbKu0G/1Q+2XcoQ8HaGnHCkuSoHQbvZ4zVbranR5N/4Amwl51IT4wnH63CnFJHppJxsFdJJe6Gaf3xVCWw5ISq9XHVXCcb3Wqv5NCF0j0cx19pXg153O9ZlLcSebba+/OFr5A1KWe3Rxh++CpOfKkTpPB9gXIvLp0BTD8x5COF+bSzhUCBklXUa3kxAvOl88xzj7TzjG3lQapvMd68qd7X6ZrvbP5m+7nJS5WUoJEeV/2kpGRpvrdtfxMEs0IDt93UpA26bRj+QhIWTS5n/cHS3mh+0CTLbQ9T3y/K2xOnBSWEp7uqeThXk6XHd1kLOTEmfS2PWSthJCJRuoqJR0WNtJOzlfBme0+8pKcLWGOd0ROlG3bSB92W12fAPlnf+IE0FwaC8VLMl5LNP+jlw/uUPZwM803el4tbt+1S6hQxNt13fTTgoO7tdhwc76cztZ802htlz4t1mpfqSeUYSko+Y+Nn4ABfS7dq/KJs52XmFoks7SI+0C2U50mn79fj2H2js7mY5XVUtmnAw7o2quUplQno7T3KyNYmOnAdhlpZVnipU+OT/KFCF0yoCz8Xmc2c7Rcm/9rxc6+VZ5qevg+zudQPJ8Tde5usfxuUilh4VQhS5xvEkO26Cz3rXtulvolU7G0MJ7elyva3EPPsFnW1n0TwM45/9yXjrf6JVqr4rUdAg+XdapJDiP5/Q/fd6JOBGziXU9+mGnqrIvlbzfynWQft0un06SDhdKJk5Ybo2RaD/rYXR8u1X37fQpqOYNPa53HbN0Kp1rGzt3arOIcp5aA8Vu1lNaSzSrzDPBW/qG/PJoov7kOh5mjQbgwh5km/2tyJlKNwuhwABXzvxKp6ZoU42+3esg77l2QgPdfousYRHds61/tOuO6JGfTquPCtpB1/fJhJhKzSRNewcOsGn5Nkcqn96jr55Wety+Zkp0htVl945e0h46upu0awkW0JWfzmwZoZ2U4G7r8ePVbx2pe6X1UTH6hu7rw+xVcpJ217+6UXhVMlP1hHMiu2YjN6pCRn4dqs/cQKCsUdp32BqEfUka2XiT9YDpa7qmntA8TkxJFZCnM/RVn462lW30TwX0X6fp0/es4awntIKPrFGtv3SWEBrZqcyYXrrPRo2i7Xt1tBAfaWFWmFkytOcmHWkXVKyX03MOn28U9eNjfKoTFZRRuX7iVujMIqV5d29aifaAtAbL/0EIlfZKYusNVXFRijqlWJd0EjXZUzrcNp7qFyOPcqJGaW/9ot/Rj32jB9JyFj2lRx2LxBZ9yHSeaVqGX8jj2Bt26TZyYGhTC//RWBl5tIeedDMeZpHSurNaG3W2WVpZ7jqSLlrXDAhTCfOnFBNgkX7TT7miVcN5b05WjOkZNVij7fkZO4enHR/v8WkoPDKwdHG77in9VmINXkqwiEtUIOTX97XSzXiYRUrrzpJxh4Wdpo7qO/1ECG0yII5NLyg1IOrsNCgSTrGN/pVwyC4lLRLbZZRFvWwD3tGoPum8M0XVKWZW74AagnOfYjynGfLJaJL+4Ro6s0oe0ob/6n4A7mAHk769LuXvAFxJfvp2CsBqvqtvMd/2DuVz/mVG93uvi+3/E9I4B5lGNVDA/QQzeMz9zfOUALCGfXlH2Z6DrvAPNdpWOc/xk0F8lfuPZmaxgBg+duZAk+7n00WvkL53QjKA/PdpllFOF0LbpjlBbZybnQwjaOd2gdb9oWRwOBqf0TQC6aZqfpm2GekNfahWP/xAl5742aUWWqNwt9eCrI8muxRnpo5Svowq9BtXHs8ypXFXZ6g1BVH6aJb1JEmv0W0p33A643VXGpluq5Hw4pxkQ7lPn6WkK/h5zjmzJZwUc8dlJGVyblMT99oMK9/UuxmqBOBSV5TWnS1P+/CSNXj2SStbfMCRxQP6XZo1763h1++7jLyPNCclo/gROeXCl+AHtpnur87BSAnmc5FKhPJ1Vi8cZF0aGMr6ALqjt2zjvbQ9OHVOcS40o4+e4l1Ta1qvg9wHvR+0lt2dznZdJPPKPMWtkg8d7l5dkqXdtpdXRlvpbjfDStYpjcbO9ONSAI5jtzSZlOYxTXcDkM91vG22SqupKsHPbOvKjM3QUMQIXjHH2fYspuuNHDB8xvme7gTA8NtsDyYn0MAcVhDHyxRmmEyaxV10hhxm5E/qbcDHVWlity9rN80FYEc+NZeYdJ/6VZoJwHeZvlH7MvQfQR4yP7ftdRzAbVlm5XFO1b22fTRT3auLWKw3aMIwimmMxJ2SrCPbnwRdUZxkFZzz0vQh+w8nEPz0AfkQbC1PPGbA4k83Nro1JQPlRVk0pkVT0mCZThJobYwU5gFNlJFP39TbbkRnDlDOSuR3azZQxBVpedn/QucRAwLcwr8HwON1OScSA+A2yjM5TUMYPzCvMda2b+Bw1WZlFFFO0MNO70S2c4VPEqzgA+oRAaawlcnL9oBc5KpEHrJ123+TFvnn17YxopOKlOmgalpraP7SldfSSqtsAQeEJmXBFyhMMjFWMt+4N+3m8cFJUZ7TjvLLaFvd0y6XukvZohyVyG/SUqCCn6ZB/rlaSfPUGF5n2gDIU40codkAnMCVrryWVozmNfND217MXvwlo9ryMMfoSWA3vgnAyaTXPD5Y0cTnLCKKl63ZFX+2h+MCclMiryVZyPjvaZB/brKNiWmsAp9KVexmmzNcJ6wBon875dbQkRuoapQ+CtmSEcfoHXmEfAN0Bw02ivO+DleejEbpajd1bY5Q1gfQGf1CCG2RhnrcH9r0tGMHKNXoCkepMsO9pQeQvrKFiBGaoLcyoOCIcpQQOlpR9hFCP3TVKggR4SFtLiOv9tX7aXhGXUoHZX0A69NKW0X84X4/OA0kcxv6e13pp2f0nsbZ5h6qy/q8DW1qcRIEI48uG2BPiTgnC6GDFLbVYou1JutzkBu0gss0XEaFOsWdk5yhrA9gfTpHCE1PA+v9nm2kQ0WzPt3qlNA9IKdCyYcuPZKS6Gz7TitapouSOVX2UTPNNsf+H1x5HCESvKs9FZBH2+omV5mYM5T1AXSkubYK+ev9fnDeto0TB+ARrOcMp3OO+3mZMVrmlDpGebpqgLzLfyqEpqke8RshNM5lWZZauEMVMvLpcM3KubRmGy9lfQAdKRl8kY58FslSxL4ByNbxmibZpkd/cSW1DNMdKnU6uw1AEYqks+qmqkTMJ1m56G73KiNEgrmcrkKhEl3khr7lEGV9AO3pAxkhj2b1+8GZTzIB7plpfgTruVDGdsZmJWu3S8s51On4dKma0rjv64VQqWZLiIOE0NRBnV0+nRTlCW0uI6Od9T/XgzyHKOsDaE/fEEoP871QCHnT7DJ2n8Y4nSO0NuvztfHSXSmZyzfVM2l6of5LCPn0goR40C5+xX1dW6ri9yoT8uooLXJrdGadEsSIEiGUW4z8aSGUn5bK8VsKod3S+Ah+qL2dTpFuch/uLFMtFzn5c9AJ6n82/PtsGZN/Sog6xgqhI9wrbSnBxzpUARlV6LeuYiVL1yBOlDAhGlnDQt7QY7pNN8iX7YCkNiS4DIALGdfvfdUyB4C90jS2z/RrnnB6h/N3MyHj8+OiPUr5izlLF/AyAA/xP13Cz0xRn/f3ik4nAVzMOQbgV1oJ+Lg22yeaM4izlK+I4GFLvkVxtoezkUCIGFFCiBj1VGsJy2gixloaWMZi6oiSQ4z8bn0BlHNZGsKgV9tQ7k3SMK4P9UcepTU2fCx/5Tg3UDtHsI15iUd1OXOAZq7kFl3Jmcbbhz3N1jFEgcO53gB8omTR77PZ2r3aAIg1vE0NwscoJho3NH9gICBBghghGkkQokZVfM1XRIhTTx2rWUcYiFsJHcgdRh7iCgAupzQte0uipV97ifG4buAdp1/Cz7jYFGZphlx0jmPNUfxHv2MesJqz+auu5+BeMt9VHEodsCP3Gw+Q4IfEgeH8zmXjFgkW6UUaMIxnP8qyPZwhAjn/RAv1tBBSjFoaWMI85tJIjBAR1lJLwq7bBi9FFBEkL3cY+Y1aBkzkR2l5cMaY5Bk/yWV9zAv2pe7jbpY7/TzO43IzItvT5KITeDnVfJd79DsWArM5hKP0NzO+x9s3cpiWAmN4yqpm/qUPALjKTUrsIMoSlhHHwyT2IJDt4QxiyLLuOBGaqKNaDYRpYAXzWM46YrQQo4k6QnZdg2zxDkOAMoZRgh8fJWzD5oyiBJMDdbSAGiarBriHU9LCyMVoVQJwEX/qZS2gBTyh+5iZsqSEs7jI9F9z72JgEeMR/Y13AdiJT3p4J8U5Qs8CBbzOrgZgDVupFtiFD9JeR2qwQizgOt1DC4WcxG9NOpSWGwuSRsoECUSEFmpVSSWNNFHPOhYxjxqixIkRIWpVJWDw4MHgwZDPGCoooRAfw9iMsUxgmAmSZ6VxT65I5FepBtiJk9P0IWs4lT8BcAOf68/s2IP9NvG2nuUZ5rZbOpYLOcekQ93jYqDh4yRzEh/pft5mao+3+pGeBQz3WDYOP1UtYLgpV7M8ZwFiqd4hhGE8B7nfKRtEAhEjgogSYq1Ws4p1RKilliqWsJoWx4wZtQoTgwc/AQwGPyPZhNGUU0o+RUxmPGWmEA8e8vDgx9OuwF5OMPKl3ATAtWms/fdTc4+VyV9hZ/bTtznCbNrJepUs1Od8wAfMJtHuFz+HcQaHmpyYIhc9xq5m116sfY3+BcDVHGNvvld0HwBnMMPVjzsIMZ91CB8T2R632HIqZP/GiBEhTIwYNVrJUhZTS4gQtayiknpkfe/jjq7bi58gPnz4CDCeiYyjjEKClLMJI0wZ+RgMXjyYbvhjTqhWvqe7gQN4Ma0Pzis6guZ2S7ZgMuMZTjNNNFLPMhbR1NmkMJ2TONmMzPbEuBhg/E9HIuB73GnvvQg7aA5QylxTke3h5RDmc4WepJkyvs+lrq3I+pZECBOmgaiaibGGShYxl0YSRKmhlipClmUnGbgBDH4KKSCPQnyUMZmxVDCCQvIYzjBTQiFey7zpsWibA+Lm57oXMGn3193fvKsT+TplyTzmbWCbIr7F4RzmPsIbBRZwKgJ24p/O83KtkhEI1+LeA21IsFKf0oJhMw6gJNvDyTiUYqBsooUG1ROihTWsZTlfUk2IhGXqTe2+7JOs20MRRRRTgJcCNmEK4xnFKPLIM8UECViFCt1K3d0hBxj5ZSSA7zA17R+yO5hZ/Ed/42M29N2xObsxg93YyfWO3WjQzDGqBcp41LSqCmbrDwDszdmuWsWBqOUzqkngZxxbbhTPSFL9kfwbpppqraWeMBFWsZr5LCWKCBMiSjOJFC23wYsXQx4jGEMpxXgoZDSbMpHR+I2XQvLIX0/L3T9knZG/qmeBPH4/IA+Ol1PNqaziRc1mDitopAkopIgiihjDZDZjMpNdY+ZGiLP1OWC4m83skhinEwYC3JLGR2zwQ6zQM9RjKGdHyobk3CQ9S2IkrNRdoxWspZpaYtRSy3IW0UACrCY8ZrczePBh8AB+ypnASIooJ58SJjGeEaYQP158+PHjtdukH1lm5OLnAJzHpv3cU3cYw2lD8d5z0Q/caE2al3FEilrlIwB+6RZZbocES5lFCJjANxgaAXFJHXeUCBHCQAt1WskCVhChkUYaqWUFNUTAyuYJx5fbS5BC/PgwFDOBCQxnOD5KKWMTRpoSgvjAytyZuZWyzMgf0kdACZe7D46LDOId/RSA/VMiN2fpSgC241L3bmyHehYSRngZxfhB6cXV6lcSJ06UZsKEaFEDK1nCQlaRIEITNayj3vp7A87/Sdadj58AfnyMZlvGMYJSfBRQQakpJukYiPX9zjyyelWiXA7ApbhWcBeZQx0nEgXGcr+TlyXG6UQAD7exMeiAew6xXC9Tj2EEMwaJYkWOeTJKmHoa1ESMENVUs5qFLKeeOC2EaaGWsN2m1TQJ4KGAMgrJx0c+pUxmMiMZRiFBghSZMgJ4nfWzPydZZeT/1AJgLBdlfx5cbES4QMsBw70pnilX62MAfsxu7t3YDmI1XxPBMJ5905IJaSDG2OpVkiBCiGrqtYoQMepYxyKWUkmEiPXzbiHiyNptrNhDMeWUMII8fBQzns3ZhDIKCBovBRTYjCbG2S6XkEVG3sDvAPgtBdmeBRcbEZ7Q3QBcwn7O0/i5kvfiNlyda09o1lHPLBoQfsYxOWc8VpL5AeM2OrKRNaqkjipaaKCRlaxmIY02O2CMuA18FwYPXgJ4wIa+l1NBMYX4GM0ERjHOFBDEa4N0TMa03P1DFhn5dVoLbM0Zg2GeXAwRrOMcAHZK8ZNq5rtEgQD/IT/bA8wxJFiiZ6nGMIrds+hBnpS1k/+ihGlQNUtYTDMRGmlhHZVUUmcDb2L2HyRl7TwKrOExyEQ2YSTDCeBjJBWMYoQpIQB48WHwDQrG3RFZY+Sr+TMA19CX7NEuXPQN52kNkM995DnLztdsAK7uUU6ejQsJljOfMIbx7JmR0PxWw6SIEbaUoEX1LGU5S1lHmAgt1FFFrZMfsE0rDgYfhfjJIw8PXsYxiYlUUEgehYxghCmgmDwrbWfOs2QgkTVG/hs1AXtx5OCfQxeDBv/VwwBczzbOfXev/g3AAa6tphM08TUtgJ/RjOlTyY4No9VHJEETERpoVJxmQtSwlGUspooECUI0UE8z4RRW3woPQYoowUeAPPIYx6aMZhOG4cNDKSWm2Al873v0ZC4jS4z8S90GwB+zff4uNiJEbdTCIZznPMlzdC4Aw7nLDL3Hu78Qy/UatYgRTE+LYqV9/ckIzTTSpGQO7gZWUM88FtFk07qGCNOSEjfZapYEQwHlFFBIIV4KGMumTGQ4ZRQbH/nkESCQkq1kqF/bLDHyS4gDx7D7UJ9fFzmEf2kekM8/nLsuxAk0AnAbY7M9vBxEgqXWY2U4e/SxKlAyYlJAjASN1KqW1dTQRJx61rGGShYTtaoUEUnxKfHgxYPX5v4roYIRlFOKF0MFkxnJCEYYDz6CePGTlyUv7uwjK4z8eT0L+Lgq22fvYiNCPb8F4BdMcpZdpM8B+BlHbZzP/wbQyEKaET5GMrqHipUEcetRkiBBCw1axXLW0kQzYRqopJZl1Dq5TOJO3UkADz4KbHCNl5GMYxTllFKIn+GMZhTDTQF5JBPAerIWgJNryAIjj5OMqvsBW7pXwEXGcL3WAZP5mXPX3WlzkR/BNe6d2CnW8DLVGCrYg+HrMcxW3XaUOGFC1vBYrzWsZhHVNJGgkXrqWEcNYRvmnuig3U6mc80jD/Awis3YhJGUYiigjHJGmGHk4bU5TXIj/Cb3kAVGfptmA4X82r0eGxnUx9/SgRi3AvBX8uyxXtPZAOzAfaatJqKLNsRZrq8JYxjDgZTY9KzJWpMhmmlUnBD1VNvc/suJAyFaqKOOFlssuNWrJDVmsoBC/ATwUcI4JjCWckbgxUMxw0wBRQTAepUMRdNk+pFxRl7PFQD8hNHZPvdBiGyzm9ZHMvWvOlmrNXdz8jMb4kDcSmzJxzskQ4g241cYHH+EgcC7rAZmUM4HMhiWciZRYAQ3soa1eMnHAB4MPsBnDWUd57t9UPbQlQ8TiGbmUAf4KAa+VBURRD3N1LKExaygBdFCzGbpjqZcP+MYJQ0FDKOEIoIY8ilkAlMYzTAKKMBn/AQotsE3bXPsonfIeIWgy3QtMJIFpjjb5z7oICLkpf02Vxf/kr8lH844UUSUJgwhhYkTIZ6sjdIhkX5yqxYMIfsRnSBBPQm7rwjNCNGAlwYENNuczwkiKbrSdKOSFmAiw6xW9TObWWU/RgL55Fu/8mRUH3jIR5a5t8JDHsV4KLYeykHyTR4BvPhtOtM2Bm9S1AC5z5havUhaq0g2Uac6FvMfXqWJIFuzHVUso4EEEUSCcDujZOr5GvIoYzjljCQPP14qmMQERlBsfPjx4qegHeMeDDOU68gwI1/MVgoDN3K+e+36gP5I5G1XOm7rC8ZJECVEhEZFaaaJFhoJ0UiMKMJDi5WSY4SBCGGiNNNCnBBhQjTSQmQ9Rr6+pK6UV0NHWV4dRjdQMwdtEnbriL22vLJJkQZT5cL2s+3FT6Et1BXARz5FFNuQb2PZeR4QpIRSSigjjyICJo+Aw7YMPjx4MY5Xc+ahlDtAJIhSqzrWsJxKokSJUE8V1axiBWFkK0a2ZgVMKkn8VmsN4KeMsVRQShEBCslnJGOoYJQJkmeD4j1DJPAmV5FhRn6iHgIm81XO5GwY/GhjkQkSVlaOOfrMtrWi1g1MamAdy1jBWkI0ESdEEyJGAxGaCNFiFSB0ImvLWZYaS9c9jFVaQNIrIeH4GggfcfzdqDD6OzOtBrlqIEARIkKTXRrESwwfMeK0KYS6O6NWmbN1ZN71xpj0tiiglAAl+CkigAc/RXYOyqignBEUU06eCeCzcxLEj9dRR6QPbamk4oStk1+zqmlgBStYQ4wQLTZOcg3Nzn2TaFci2OAnz2bg9mAoYgLjGMUIgngpoIQxlFJiiyjgvKpcZAoZZeTvaE8AHuQE99XcC3SUXJPZJiKECRFRUh0RpYV6aqinihpqaLSaZw8igQdDnBBewog4jdTQTIMTapGUsjZ0LxgMPstwDAEM4E9RKHT1+HoIkkcBAbwU40P4KbCymg9DPl6r2PA4TD8ATkUVdcIwu0cMgwghogAs5HqglL34kkUA+DiC8YSJYAjTSIIWYjQ7xXLbkHA0/UL2+yNGlDhRol0w/tYyu6K93tcQpJACCgmShxcfXgwljGE0oxlOGfnk4SPPBAk4xQtat+96DtrfIQmitBAiREQR4jRTzwqqWMoKWogTJUwzjdRaxt2mUGsbrR8fLcSBIKMZxkQmMZYySinCS4AyhpsiAvgcTfjgUCINVWSQkYvd9T4wjffdGLpu0RaCnCBBMy1EqFczUaI0IVqooZ51VLKCWsuqhGz1wAghwk62tzYk2Uqb/G5S5C0PQQrw4aHIfjRj2XUefgwJIA8PPsopoAwvfkbixUc+BfgwBPHgxed8btPuyIY8DHnGYx93H61FslrZQHK9pDSXPLaIY+woW1UgPZ2/mKNCSb4KlrFFuxt9PHdb59eIfTUmiMpnmrW+lj5GghghIogW6kgQp5Ym6mikljAhPDbHXsKhRkLEiNHQzgCYagpMhYcAReSRbwNafBQygTGMYzT5FOEnwDCTT5n93aTsL1kqoZEoTaohRpgWQlSxhjUsp8paJGI00UILoZTvKZPiSZLUaxdRjB8f+Rg2IcHzrMEwhUvZiRJTSBB/v4sEuxgYZNBr5X69D8Af3VugHdpMggLCtFCjJKMIEyZKNZXUUMlqaokSoy3kIikXtkfrx3lH3W+QQvLJJx8fBXgdLw0APyUMp5Qi/JSQTwEFeMnHjyHf+EiyjCQL8Vq52zgpPttSD/UcA30HdFTcbc7+vGLbHr7P1Wa47aXw925FygQJ529bdr2Yfd0kr2KYqMKEaKaOappoYg2VtrqjCBMlRAtNNNNkDb2tCqpkYqhURp+HHz9+DD7yGM4EjWUSZeSTz2gKCFNDCyFaaKaRSmpZyWIaU+6NpJIt1WPb2AAagAJGUEAZBeRj8DGayYxkPKXkm6Tr3yt6C4OhhF3YzriMO7eRMUZeZ/NcHMs3Nvo7QjaIIvm3WtVUs4q1RIAWqlnDOtZSZzW3MWLIsuzUR92H1z7qXlq1tQUMo4x8ygniw0+RVVkYSimhlGKKKSRA0ASsaiSJvJSEQp52hrihcrEeNL/UB8D+nMYOKSfV0/Pz9kDjKzDJ12yrfjlqv5eSNoowDWqmmiqqWWeVGc000kwN9aylynoHJVU4oZQ9L+YLPATwYAgygSKiVFJDxFk7YbdtPStjS/4mv3oMRYyljJHkMwwvUMpmlFFBqUm+0JMacJ9z3av4ikagmEkMc9l4ziNjjPynWgEUccNGeEckP97jtkZJnBqtYTFLqLSFqKqop9LW6MbK5qmSdtLU1KpRBfAns0wwnGICFBIgjwCimGEUUkCRCRIgmCIne1Jk543xw3gE/xzwU24tzdsVyxcyctQvgPW/blQ966hhNU2so4Ya6ljC2hRTc4IQ0GyPssp+AyQ6PUrSL3s0E6ighOGU4CVIMWMooszkk2/vgFbDpel0pGv0NrXACL7ZSUyni1xDhhj5V7odgL8yLttnnDEkM0m00EiNYtRSzQLmsZYotTRTTQ1NVk+ZSJGkwBAgSBC/88iVMJaxlDOcEVZpUEgxeZSaAgoJ4HF0y20+D+6jlytoMyXGCBOjmSjNSqpoaqlhBWtYRQ0R4sRpooEIjZ0YXduubKt3jWF9t00PY9iWbdiWTRjFWFNgGTb29dKz+yJBJcuJAuXsmJEs5C76hwwx8jBe4lzOmUOevyT13c3UUq06qlnKF8y26fEbaCTM+kavIIUU2aDlPIKMZjwTGUa5NSQGCJoi8giQ5xj9Bk+wycaA9X3jY0RpIUoTTQoTt34i1VSxmFWss4qypOdRC00pKphWGOdaeykiQAGFQIA8/ARsgtdGammwapxW98kqPmcJb1HBTuyo4VQw2hTjQb0wGNfxFSHAx2hGmt4Yml1kBxli5DuZt1XPgUOY6yRrCDaxQsupYyGfMZd6QtZfIOklYGgLoaigjFJK8FFECZOZRCnl+Mk3Sd130oMhlW27yA20ZRBpVX9FaCZCg+qppwEhmmmgmVVUs4I1tAARq1CJE0rxHYFW1702B0s/ZZRQQhFFGAxF5DORkYylOOkvZIIYWzNnJXOZRQMh6lhJJXEShFjJSsDLm+TjZzK7aWtKGc+mJj9FPdc1xFpeoRYYxrQcLbfsoj0ypiMfurXJk0mEVvO1vmYtn/M1jYQJOaanZLrNZLXApENZHiWMZxxjKTNJg1QeeY5TnotcQWrguqyDZ4RGWlRPLVWsIQqIJAOvoYZK6p3M262xk7F2+/RYN81Ww3KQEYygiHLrW+6hhE0YzjBKKTc+GwmaLATsaacekUmwI/sTIkaI1ZrNEmpYxwoWUkuCOHXUYljFRwTJZ2t20Ci2ZnszLCXStPPzrtFcmhEj2Q03lcZgQBaLLw8FiDDrmKV3mMfXzCdiQ0fAZ7XXw9icTRlJMYVMZAwjTJENhXEzKWcfbYqMmM0G0+qylyBKsxqpp5Z11FFHjEbCRAnTQjV1VNLgRIS2qjbamx99+AjiwU/SuCgKGc0ohlFCKR4CFBBkJCMppMwU2Ne5cQzT3as0DF685FEMiIlmV+KEqWalFrKKGubxBbVEaKGRRmAFr5LHZmyjTZjOjpSZIgo6vQMjLKcRYShmbEptUxe5C5eR9wMxVvGunmQ2CwlZFu6hjCKCbMqObEkh5YyhwhTb8Ove+lu7SAdSDYKtCo5kvphYUhGiGDU00sBK1lBJFGxwVYhmwtTQTMjxEkmy+Y7pCzy2WqTP5hWBAGNsZu3h5BMkiMinnGEUmXzywa7nwTh/+4ok2/cTpIQJZhpxGlmjFaxlBR8zm0ZaqCVKlFl8hZ+nmMRYzWAGFWZYiuUliSreoRZDEVtR5t6ugwIuI+8zQnyhW3mTRURIhnAkPUv2ZEdGUsIoU2L9sd1nYWDRMSEX1oc7RoQwzYQUIQZEidNCs1WCrKGKaps+SjZZVBMRmtqF5nSEsc6gxfhJJsNK+uMXMY7xDGMYw2yQjZcgJaaIPHztNNMDa6I21v0xnxFmGxKEqGaNqvma11lMHasJE2Ie8/HzApuwnfZmOzY1Zc4IRbU+pB4YyTcode/eQQGXkfcRYrFu4inqEH5b+vUgplBihlFC9jLbDV2snysxWUwsSogozUSVrEmTIEQLEKaWWmpYSxU1hDFErb47RMxJw9o+iUHHlocgZQQpI9/qqP0UEWQ0YxlGGaUUkw+A1+ST70Rj5kKC1qSUXkQR402cGRxJtebxKgtZzWJaiLCK1XzFi4zlAO3KNow3QTwkWMs64hiGsQ2FWRu/i97AZeR9RIRlvE8topS9OYj9GG2KOs3j56KnaKuuTor2OZlRJJlAt0HNNNJIky3TGyNCM/U00kATK6ghbNk74NSDTKyXyMCTkmSgVanhp4xhFFBIMT4K8QAFVDCSEiooodT4bH7tZFStNyXgPbeN1AYfpZQyyWzHt6jma73Fcr5gEWGaaGQlsylhT/bWVLY0Hj6hjmTQWYXrejhI4DLyPkJOqlg/PqpYQSEJAvgJ9CrB08aDttwiUbDa6VY2HSFZjqJJIULU0sQamggTc7LLxKinhTqaaKSeRluXPbnHqBNw0zEXoQcPfvJodfLzIXz4GU4FxZRRgpdSK1PnM5yRBCmj2CTzzGD9S8yAJJjNPAwBAgxjotmHemZqNrN5m2qb/+UpXmUKMzSMZ6kDytnDdT0cNMh4haChggSz9QeepQGDlwImMYEyxrMtkxlpkv4KSfktNWB7cDMC6K4AhGxd9Jh9ybX+a/21RcnsjTFqaKKaOhpoopkIhggQJUKCRmI00kKDrRzUUQOudsta4cVvzYw+mxoXwEc5IxlBBUGKKKSQPMBPIWUUUGQKbQLdVqe+tvQFg/86bQgiTow1zNKXvMKX1NJEAg955NNIFNie69nPuJLe4IDLyPuMMB/rTt5mIWEgKf0VMZJSijAUM4VxjGCYNRf5KMZvCvHhI7/DJ3k2axWun9Y2Ne1qkmlGSRC1HtURQsSRkulyU++eEPXEibGOKA3UU0UT9XZuIJkvJGQTSsVpSmZTJ+Fkwe6qCmhbygGvzSkTsJJ2QYpSZDTllFJAOUUUO8tLCFBs8vBbHXdr3nRjA7RcJGhkiRbxHq+zmHVO9EOQA7mabdyE04MELiPvByJU8pkeZh6rWd3BdGZsgIfffqQXMoZyRlBCEeUEyLclGfIQAQJWMvQQMB48jkOYp12NzlSNbufqm9YMiak64WR27lZVRMx5VGNE1Jo5L0YTPiIY4k4m8yhRWjDEiNBAjCgNxKijmQYa24WVtx4lRjLsPFmRJrpeMExbwbW2v+1fXwY/AQLkUUgQr1WMGPLw4Gc4ZZRSTgnDKCJAkZ1bj8lzXP/8Nsc5XR7DRUeIGPUs1xu8xByWESGPnbiYA42rWhkscBl5PxGlhrX6nA9ZRw3rWEYtsua1eIqvcZI9+2wokJ8EXhsoIjwUUEA+QfIpwEsBAQrsVkErswcRQWsIDBDBh2z2jDgeW/rBQ9RK1lFwZGERxdj0qCHiRGzZiSgtNJOghTBhWuxrKGoVEyIC4GzZ5j2ddORrrSyzPtrn1Fs/w57PZpbJpxgPPlvKIokApRRSShllDEvm8TM+khkFkzGwHlsZc+PM4TiQEM1U8qlep45S9uRA47oeDh64jDwNkC0BUcNKzWUdLdRQxTqWscbqjZNqiYRNUStSi4Al4UnR0bbmMUyF17LtJMNOpNR3acuCl7ps/XqbOMvaAlvitt91uTKcfbYlwm2rv9nRN9qQRyEllFBAAX6bxbGQQArzzbdrFFGEnwLjw0/AmYX2FR/dgr2ZhYjQQgIv7fPVu8h1uIw8jWhl2FEaqaNWq2gkQTNhGmiggWrWUUM9Le0CV2RlXKypkBSjYfquTqrnhcdW+kkuh2RFndRML6bDtgECFFCGjzIC+CnFj6GIQrtmPiKfpKNbIUEKKCAPLwXGa3M2mpTsHiaF8a9/NBcuXPQWLiMfELT5Q2NNhC000agQzTQ5VdzjNBOnkRZrIqwjRgsNtFBPjBoihNfTMvcNfgLkU4CfAAX4KcBLEYYARRg8DMdHEAiSjyHQIb+Gh0JbCd5DgHxjyCcPnHJx7QvvplZ0dBPtunCRCfw/5ZAP79C5SuIAAAAASUVORK5CYII=;sketch=1;curveFitting=1;jiggle=2;shadow=1;imageBorder=none;fontColor=#000000;" vertex="1" parent="1">
          <mxGeometry x="337" y="403" width="88.97" height="22" as="geometry" />
        </mxCell>
        <mxCell id="J0l9M5PMSN77PLH0h2BJ-55" value="&lt;h2&gt;&lt;font face=&quot;Courier New&quot;&gt;WWW.SIVARANJAN.LIVE&lt;/font&gt;&lt;/h2&gt;" style="text;strokeColor=none;align=center;fillColor=none;html=1;verticalAlign=middle;whiteSpace=wrap;rounded=0;fontColor=#000000;" vertex="1" parent="1">
          <mxGeometry x="577" y="175.93" width="168" height="30" as="geometry" />
        </mxCell>
        <mxCell id="J0l9M5PMSN77PLH0h2BJ-56" value="&lt;h1&gt;&lt;font face=&quot;Times New Roman&quot;&gt;&lt;b&gt;WEB-HOST&lt;br&gt;&lt;/b&gt;&lt;b&gt;PUBLIC DNS&lt;/b&gt;&lt;/font&gt;&lt;/h1&gt;" style="text;strokeColor=none;align=center;fillColor=none;html=1;verticalAlign=middle;whiteSpace=wrap;rounded=0;fontColor=#000000;" vertex="1" parent="1">
          <mxGeometry x="354" y="465" width="168" height="30" as="geometry" />
        </mxCell>
      </root>
    </mxGraphModel>
  </diagram>
</mxfile>
